<?xml version="1.0" encoding="UTF-8"?>
<svg id="Calque_1" data-name="Calque 1" xmlns="http://www.w3.org/2000/svg" xmlns:xlink="http://www.w3.org/1999/xlink" viewBox="0 0 184.17 245.56">
  <defs>
    <linearGradient id="Dégradé_sans_nom_46" data-name="Dégradé sans nom 46" x1="28.15" y1="127.51" x2="162.1" y2="127.51" gradientUnits="userSpaceOnUse">
      <stop offset="0" stop-color="#009c54"/>
      <stop offset=".02" stop-color="#149d4d"/>
      <stop offset=".06" stop-color="#3da040"/>
      <stop offset=".1" stop-color="#60a235"/>
      <stop offset=".14" stop-color="#7aa42d"/>
      <stop offset=".19" stop-color="#8da527"/>
      <stop offset=".23" stop-color="#99a624"/>
      <stop offset=".28" stop-color="#9da723"/>
      <stop offset=".52" stop-color="#fbc435"/>
      <stop offset=".7" stop-color="#e95f32"/>
      <stop offset="1" stop-color="#e3312d"/>
    </linearGradient>
  </defs>
  <g id="_77e6jl" data-name="77e6jl">
    <path d="M142.3,208.83c-26.98,25.91-69.95,25.13-95.97-1.6-17.83-18.32-22.41-43.97-14.32-68.28,5.56-16.72,16-32.22,26.23-46.51,14.27-19.94,27.7-39.44,34.75-63.16.29-.99.81-1.84,1.57-2.01.81-.18,2.1.2,2.36,1.09,5.89,19.77,15.97,37.1,27.82,53.86l12.21,17.27c6.39,9.04,12.04,18.25,16.75,28.28,3.36,7.16,5.76,14.19,7.23,21.91,4.12,21.67-2.66,43.85-18.62,59.17ZM99.31,119.67c.6-3.24,1.89-9.65,5.55-9.61,3.39.03,5.16,6.67,5.64,9.47l4.83,27.84,2.26,12.62c.46,2.59,2.26,11.53,5.33,11.26,6.35-.55,5.14-23.84,12.46-23.55,1.33.05,2.83,1,3.53,2.36,3.05,5.96,3.23,11.71,5.88,18.25,1.98,4.86,8.58,3.38,13.05,3.1,3.77-26.67-10.09-49.9-24.73-70.65l-15.85-22.47c-8.82-12.5-16.99-28.34-22.26-43.16-4.01,11.8-9.06,22.4-15.45,32.78s-12.57,19.1-19.39,28.5c-15.44,21.31-31.34,46-27.94,73.65,6.35.39,13.8,2.1,17.29-3.96l3.52-6.1c.64-1.12,2.1-2.03,3.16-2.11,4.49-.35,5.38,5.7,8.29,9.74.24.33,1.16.68,1.49.5,1.56-.86,2.75-6.14,3.1-8.06l2.41-13.23c.63-3.45,2.02-11.47,6-11.56,3.31-.07,4.93,4.85,5.45,7.58l3.32,17.25c.4,2.08,1.84,10.38,3.66,10.85,1.03.26,2.43-5.18,2.62-6.21,2.89-15.58,3.97-29.84,6.77-45.08ZM32.79,173.73c6.13,32.4,37.28,53.72,69.17,50.12,27.13-3.06,49.54-22.07,55.18-48.93-6.41.1-12.9,1.36-15.66-5.89-1.33-3.51-2.18-7.07-3.06-10.77-.22-.92-2.02-8.1-3.34-7.09-3.57,2.72-3.31,24.08-12.72,23.4-1.86-.13-3.55-1.32-4.55-3.16-1.65-3.02-2.7-6.32-3.3-9.81l-3.86-22.39c-1.21-7.01-2.22-13.78-3.75-20.69-.42-1.91-.93-3.58-2.22-5.21-1.36,2.86-2.02,5.35-2.43,8.21l-3.56,24.78c-1.02,7.08-2.27,20.42-5.57,26.1-.67,1.16-2.1,1.93-3.23,1.95-3.49.05-5.29-5.64-5.84-8.53l-3.76-19.75c-.52-2.71-1.11-5.03-2.62-7.65-2.31,2.27-3.99,14.37-4.66,18.11s-1.43,7.63-2.83,11.23c-.77,1.99-2.4,3.81-4.61,3.75-1.94-.05-3.75-1.55-4.63-3.22l-3.2-6.1c-.18-.34-.82-.95-1.18-.9-.3.04-.86.56-1.05.89l-3.18,5.6c-4.32,7.61-12.05,5.88-19.55,5.94Z" fill="url(#Dégradé_sans_nom_46)"/>
  </g>
</svg>